# xmcd
#
# Track frame offsets:
#	150
#	17668
#	36120
#	51824
#
# Disc length: 1003 seconds
#
# Revision: 1
# Processed by: cddbd v1.5.1PL2 Copyright (c) Steve Scherf et al.
# Submitted via: dBpowerAMP V4.0
#
DISCID=2803e904
DTITLE=Claymen - Favourite Songs E.P.
DYEAR=2002
DGENRE=Pop
TTITLE0=Eyecatcher
TTITLE1=Favourite Song
TTITLE2=Shalalala
TTITLE3=Whore
EXTD=
EXTT0=
EXTT1=
EXTT2=
EXTT3=
PLAYORDER=
